<?xml version="1.0" encoding="utf-8"?>
<!-- Generator: Adobe Illustrator 18.0.0, SVG Export Plug-In . SVG Version: 6.00 Build 0)  -->
<!DOCTYPE svg PUBLIC "-//W3C//DTD SVG 1.1//EN" "http://www.w3.org/Graphics/SVG/1.1/DTD/svg11.dtd">
<svg version="1.1" xmlns="http://www.w3.org/2000/svg" xmlns:xlink="http://www.w3.org/1999/xlink" x="0px" y="0px"
	 viewBox="0 0 287.9 43.8" enable-background="new 0 0 287.9 43.8" xml:space="preserve">
<g id="Layer_1">
	<g>
		<path fill="#FF227A" d="M97,10.8c-0.2-0.4-1.9-0.7-1.9-0.7c-3.3-0.6-5.6-0.3-6.2-0.2c-0.6,0.1-3.8,0.6-7.1,1.6
			c0-0.2,0-0.8,0.1-0.9c0.1-0.1,0.2-0.2,0.4-0.3c0.2-0.1,0.3-0.5,0.2-0.6c0-0.1,0-0.3,0.1-0.4C82.7,9.2,82.8,9,82.8,9
			c0.1-0.1,0.1-0.3,0-0.7c0.4-0.4,0.7-0.9,0.8-1c0-0.2,0.2-0.7-0.2-1.3C84,5.3,84,4.9,84,4.9c0.1-0.3-0.1-1.1-0.3-1.4
			c0.4-0.3,0.4-0.9,0.3-1.3c-0.1-0.4-0.6-0.6-0.6-0.7c0-0.1,0.2-0.2,0.5-0.4c0.3-0.1,0.5-0.8,0.4-0.9c-0.2-0.2-1.5-0.4-2.9,0
			c-1.6,0.5-3.8,2.2-5.1,4.6c-1.3,2.4-2.3,7.2-2.6,7.4c-0.3,0.3-1.1,0.3-1.4,0.2c-0.3-0.1-2.1-0.4-3.4,0.5c-1.3,0.9-1.6,2.4-1.6,3.5
			c0.1,1.1-0.3,1.4-0.6,1.6c-0.3,0.2-4,3.3-4.1,3.5c-0.1,0.2-0.1,0.4-0.1,0.5c0,0.1,0.1,0.1,0.1,0.1s0.2-0.2,2.1-1.6
			c1.9-1.4,4-1.9,4.8-2c0.8-0.1,2.5,0,3.4,0.6c2.4,1.7,1,4.8,7.9,7.4c0.1,0,1,0.2,0.6,1.3c-0.8,1.8-1.8,6.2-1.3,6.6
			c0.2,0.1,0.8-1.2,1.1-2.3l0,0.7c-0.6,2.4-0.3,3,0.2,3.3c0.6,0.4,2.2,1,2,0.4c-0.3-1.5-0.4-7.9-0.3-8.9c0.2-2.6-0.1-5.3-0.4-6.4
			c-0.3-1.1-1.1-1.7-0.3-2.2c0.8-0.5,1.1-1.1,1.1-1.3c0-0.2-0.1-0.4,0-0.5c0.1,0,0.1,0,0.2-0.1c0.1-0.1,0.1-0.3,0.2-0.4
			c0.1,0,0.4,0.1,0.5,0c0.1-0.1,0.3-0.1,0.3-0.3c0.1-0.2,0.2-0.3,0.3-0.4c0.1-0.1,0.4,0.3,1,0.1c0.6-0.2,0.7-1,0.9-1
			c0.3-0.1,0.4,0.5,1,0.3c0.2-0.1,0.4-0.3,0.6-0.4c0.2-0.1,0.4,0.3,1.1,0c0.3-0.1,0.3-0.4,0.4-0.4c0.1,0,0.2,0.1,0.6,0
			c0.4-0.1,0.7-0.5,1-0.7c0.3-0.1,0.9,0.1,1.3-0.1c0.4-0.2,0.7-0.8,0.9-1c0.2-0.1,0.8-0.2,1-0.5c0.3-0.3,0.8-1,0.9-1.1
			c0.2-0.1,0.7,0.1,0.9,0.1C96.8,11.2,97.1,11.2,97,10.8"/>
	</g>
	<g>
		<path fill="#FF227A" d="M0,22.1c0-0.3,0.3-0.6,0.6-0.6h2.9c0.3,0,0.6,0.3,0.6,0.6v8.2h12.1v-8.2c0-0.3,0.2-0.6,0.6-0.6h2.9
			c0.3,0,0.6,0.3,0.6,0.6v20.5c0,0.3-0.3,0.6-0.6,0.6h-2.9c-0.3,0-0.6-0.3-0.6-0.6v-8.6H4.1v8.6c0,0.3-0.2,0.6-0.6,0.6H0.6
			C0.3,43.2,0,43,0,42.6V22.1z"/>
	</g>
	<g>
		<path fill="#FF227A" d="M24.8,22.1c0-0.3,0.3-0.6,0.6-0.6h2.9c0.3,0,0.6,0.3,0.6,0.6v12.7c0,2.6,2.2,4.6,5.4,4.6
			c3.2,0,5.6-2,5.6-4.6V22.1c0-0.3,0.2-0.6,0.6-0.6h2.9c0.3,0,0.6,0.3,0.6,0.6V35c0,4.7-4.9,8.5-9.8,8.5c-4.9,0-9.5-3.8-9.5-8.5
			V22.1z"/>
	</g>
	<g>
		<path fill="#FF227A" d="M72,21.5h-0.8L60.7,36.9h0h0L50.2,21.5h-0.8c-0.3,0-0.6,0.2-0.6,0.6v20.8c0,0.3,0.3,0.6,0.6,0.6h2.8
			c0.3,0,0.6-0.3,0.6-0.6V31.7h0l7.4,12.1h0.2h0.3h0.3h0.2l7.4-12.1h0v11.2c0,0.3,0.2,0.6,0.6,0.6H72c0.3,0,0.6-0.3,0.6-0.6V22.1
			C72.6,21.8,72.3,21.5,72,21.5"/>
	</g>
	<g>
		<path fill="#FF227A" d="M75.9,26.5c-0.1,0-0.2-0.1-0.4-0.1h-0.3v0.7h0.3c0.1,0,0.3,0,0.3,0c0.1-0.1,0.2-0.2,0.2-0.3
			C76,26.6,75.9,26.5,75.9,26.5 M75.5,26.2c0.2,0,0.4,0,0.5,0.1c0.2,0.1,0.3,0.2,0.3,0.5c0,0.2-0.1,0.3-0.2,0.4
			c-0.1,0-0.2,0.1-0.3,0.1c0.2,0,0.3,0.1,0.3,0.2c0.1,0.1,0.1,0.2,0.1,0.3v0.1c0,0,0,0.1,0,0.1c0,0.1,0,0.1,0,0.1l0,0H76
			c0,0,0,0,0,0c0,0,0,0,0,0l0-0.1v-0.2c0-0.2-0.1-0.4-0.2-0.4c-0.1,0-0.2-0.1-0.4-0.1h-0.3v0.8h-0.3v-2H75.5z M74.4,26.1
			c-0.3,0.3-0.4,0.7-0.4,1.1c0,0.4,0.1,0.8,0.4,1.1c0.3,0.3,0.7,0.5,1.1,0.5c0.4,0,0.8-0.2,1.1-0.5c0.3-0.3,0.4-0.7,0.4-1.1
			c0-0.4-0.1-0.8-0.4-1.1c-0.3-0.3-0.7-0.5-1.1-0.5C75.1,25.6,74.7,25.8,74.4,26.1 M76.8,28.4c-0.3,0.3-0.8,0.5-1.3,0.5
			c-0.5,0-0.9-0.2-1.3-0.5c-0.3-0.3-0.5-0.8-0.5-1.3c0-0.5,0.2-0.9,0.5-1.3c0.3-0.3,0.8-0.5,1.3-0.5c0.5,0,0.9,0.2,1.3,0.5
			c0.3,0.3,0.5,0.8,0.5,1.3C77.3,27.6,77.1,28.1,76.8,28.4"/>
	</g>
</g>
<g id="Strokes">
	<g>
		<path fill="#FF227A" d="M98,33.5h3.4c1.9,0,2.8,1.1,2.8,2.4c0,0.8-0.4,1.5-1.1,1.8c1.1,0.3,1.8,1.2,1.8,2.4c0,1.6-1,2.9-3.2,2.9
			H98V33.5z M101.3,37.2c1,0,1.4-0.5,1.4-1.3c0-0.7-0.3-1.2-1.4-1.2h-1.8v2.5H101.3z M101.6,41.7c1.3,0,1.8-0.7,1.8-1.6
			c0-1-0.5-1.7-1.8-1.7h-2v3.3H101.6z"/>
		<path fill="#FF227A" d="M106.4,33.5h6.1v1.3h-4.6v4h4v1.3h-4v1.6h4.8V43h-6.3V33.5z"/>
		<path fill="#FF227A" d="M115.1,43h-1.5l4.2-9.7h0.1l4.2,9.7h-1.6l-0.5-1.3c0,0-4.2,0-4.3,0L115.1,43z M117.8,36.6l-1.6,3.8h3.1
			C119.4,40.3,117.8,36.6,117.8,36.6z"/>
		<path fill="#FF227A" d="M122.9,39.6v-6.2h1.5v6.1c0,1.5,0.8,2.2,2.1,2.2c1.4,0,2.1-0.7,2.1-2.2v-6.1h1.5v6.2
			c0,2.3-1.6,3.5-3.6,3.5C124.5,43.1,122.9,42,122.9,39.6z"/>
		<path fill="#FF227A" d="M134.3,34.8h-2.8v-1.3h7.2v1.3h-2.8V43h-1.5V34.8z"/>
		<path fill="#FF227A" d="M139.3,33.5h1.7l2.7,5l2.7-5h1.6l-3.5,6.5v3h-1.5v-3L139.3,33.5z"/>
		<path fill="#FF227A" d="M152.8,40.5c0.4,0.8,1.2,1.3,2.2,1.3c1,0,1.7-0.5,1.7-1.2c0-0.9-0.7-1.2-1.5-1.6l-0.7-0.3
			c-1.4-0.6-2.4-1.3-2.4-2.8c0-1.5,1.1-2.5,2.6-2.5c1.2,0,2.1,0.5,2.7,1.5l-1.1,0.7c-0.4-0.6-0.8-0.9-1.6-0.9
			c-0.8,0-1.2,0.4-1.2,1.1c0,0.8,0.5,1,1.5,1.5l0.7,0.3c1.4,0.6,2.4,1.3,2.4,2.9c0,1.8-1.3,2.6-3.2,2.6c-1.6,0-2.8-0.8-3.4-2
			L152.8,40.5z"/>
		<path fill="#FF227A" d="M161.4,34.8h-2.8v-1.3h7.2v1.3h-2.8V43h-1.5V34.8z"/>
		<path fill="#FF227A" d="M166.6,43h-1.5l4.2-9.7h0.1l4.2,9.7H172l-0.5-1.3c0,0-4.2,0-4.3,0L166.6,43z M169.3,36.6l-1.6,3.8h3.1
			C170.9,40.3,169.3,36.6,169.3,36.6z"/>
		<path fill="#FF227A" d="M181.4,43h-1.8l-1.6-2.3c-0.2,0-0.4,0-0.7,0h-0.9V43h-1.5v-9.5h2.4c2.6,0,4.1,1.4,4.1,3.6
			c0,1.5-0.7,2.6-1.9,3.2L181.4,43z M177.3,39.4c1.8,0,2.6-0.9,2.6-2.3c0-1.4-0.8-2.3-2.6-2.3h-0.9v4.6H177.3z"/>
		<path fill="#FF227A" d="M184.9,34.8h-2.8v-1.3h7.2v1.3h-2.8V43h-1.5V34.8z"/>
		<path fill="#FF227A" d="M191,40.5c0.4,0.8,1.2,1.3,2.2,1.3c1,0,1.7-0.5,1.7-1.2c0-0.9-0.7-1.2-1.5-1.6l-0.7-0.3
			c-1.4-0.6-2.4-1.3-2.4-2.8c0-1.5,1.1-2.5,2.6-2.5c1.2,0,2.1,0.5,2.7,1.5l-1.1,0.7c-0.4-0.6-0.8-0.9-1.6-0.9
			c-0.8,0-1.2,0.4-1.2,1.1c0,0.8,0.5,1,1.5,1.5l0.7,0.3c1.4,0.6,2.4,1.3,2.4,2.9c0,1.8-1.3,2.6-3.2,2.6c-1.6,0-2.8-0.8-3.4-2
			L191,40.5z"/>
		<path fill="#FF227A" d="M201,33.5h5.9v1.3h-4.4v4h4v1.3h-4V43H201V33.5z"/>
		<path fill="#FF227A" d="M215.1,43h-1.8l-1.6-2.3c-0.2,0-0.4,0-0.7,0h-0.9V43h-1.5v-9.5h2.4c2.6,0,4.1,1.4,4.1,3.6
			c0,1.5-0.7,2.6-1.9,3.2L215.1,43z M211,39.4c1.8,0,2.6-0.9,2.6-2.3c0-1.4-0.8-2.3-2.6-2.3h-0.9v4.6H211z"/>
		<path fill="#FF227A" d="M216.3,38.2c0-2.8,2.2-4.9,4.9-4.9c2.7,0,4.9,2.1,4.9,4.9s-2.2,4.9-4.9,4.9
			C218.5,43.1,216.3,41.1,216.3,38.2z M224.6,38.2c0-2-1.4-3.5-3.4-3.5c-2,0-3.4,1.5-3.4,3.5c0,2,1.4,3.5,3.4,3.5
			C223.2,41.8,224.6,40.3,224.6,38.2z"/>
		<path fill="#FF227A" d="M227.8,33.3L227.8,33.3l4.7,5.4l4.6-5.4h0.1V43h-1.4v-6.2l-3.2,3.9h-0.1l-3.2-3.9V43h-1.4V33.3z"/>
		<path fill="#FF227A" d="M241.6,33.5h1.6l2,6.1l2.7-6.3h0.1l2.7,6.3l2-6.1h1.5l-3.3,9.7h-0.1l-2.8-6.6l-2.9,6.6H245L241.6,33.5z"/>
		<path fill="#FF227A" d="M255.5,33.5h1.5V43h-1.5V33.5z"/>
		<path fill="#FF227A" d="M261.3,34.8h-2.8v-1.3h7.2v1.3h-2.8V43h-1.5V34.8z"/>
		<path fill="#FF227A" d="M273.1,33.5h1.5V43h-1.5v-2.9h-4.6V43H267v-9.5h1.5v5.3h4.6V33.5z"/>
		<path fill="#FF227A" d="M276.7,33.5h1.5V43h-1.5V33.5z"/>
		<path fill="#FF227A" d="M281.7,36.7V43h-1.4v-9.7h0.1l6.1,6.4v-6.3h1.4v9.7h-0.1L281.7,36.7z"/>
	</g>
</g>
</svg>
