<?xml version="1.0" encoding="utf-8"?>
<!-- Generator: Adobe Illustrator 17.1.0, SVG Export Plug-In . SVG Version: 6.00 Build 0)  -->
<!DOCTYPE svg PUBLIC "-//W3C//DTD SVG 1.1//EN" "http://www.w3.org/Graphics/SVG/1.1/DTD/svg11.dtd">
<svg version="1.1" id="Layer_1" xmlns="http://www.w3.org/2000/svg" xmlns:xlink="http://www.w3.org/1999/xlink" x="0px" y="0px"
	 viewBox="0 0 20 20" enable-background="new 0 0 20 20" xml:space="preserve">
<path fill-rule="evenodd" clip-rule="evenodd" fill="#FFFFFF" d="M2.6,0h14.8c1.4,0,2.6,1.2,2.6,2.6v14.8c0,1.4-1.2,2.6-2.6,2.6H2.6
	c-1.4,0-2.6-1.2-2.6-2.6V2.6C0,1.2,1.2,0,2.6,0L2.6,0z M14.5,2.2c-0.5,0-0.9,0.4-0.9,0.9v2.1c0,0.5,0.4,0.9,0.9,0.9h2.3
	c0.5,0,0.9-0.4,0.9-0.9V3.1c0-0.5-0.4-0.9-0.9-0.9H14.5L14.5,2.2z M17.7,8.4h-1.8c0.2,0.5,0.3,1.1,0.3,1.7c0,3.3-2.8,6-6.2,6
	c-3.4,0-6.2-2.7-6.2-6C3.8,9.5,3.9,9,4,8.4H2.2v8.4c0,0.4,0.4,0.8,0.8,0.8h13.9c0.4,0,0.8-0.4,0.8-0.8V8.4L17.7,8.4z M10,6
	C7.8,6,6,7.8,6,9.9c0,2.1,1.8,3.9,4,3.9c2.2,0,4-1.7,4-3.9C14,7.8,12.2,6,10,6z"/>
</svg>
