<?xml version="1.0" encoding="utf-8"?>
<!-- Generator: Adobe Illustrator 17.1.0, SVG Export Plug-In . SVG Version: 6.00 Build 0)  -->
<!DOCTYPE svg PUBLIC "-//W3C//DTD SVG 1.1//EN" "http://www.w3.org/Graphics/SVG/1.1/DTD/svg11.dtd">
<svg version="1.1" id="Layer_1" xmlns="http://www.w3.org/2000/svg" xmlns:xlink="http://www.w3.org/1999/xlink" x="0px" y="0px"
	 viewBox="0 1.1 20.4 27.4" enable-background="new 0 1.1 20.4 27.4" xml:space="preserve">
<g id="c4_telephone">
	<path fill="#FFFFFF" d="M20.3,25.8L20.3,25.8l-3.7-6.3c-0.3-0.5-0.9-0.6-1.4-0.4l-2.2,1.3l0.2,0.3c-1,0.4-1.9-0.6-3.4-2.6L7,13.9
		c-0.6-1.4-1.1-2.8-0.2-3.4l0.1,0.2l2.2-1.3v0C9.7,9,9.8,8.4,9.5,7.9v0L5.8,1.6C5.5,1.1,4.9,1,4.4,1.3L2.2,2.6l0.1,0.2
		C1.1,3.8-2.4,7.5,3.7,18C10,29,16,29,17.5,28.3l0.2,0.3l2.2-1.3v0C20.4,26.9,20.5,26.3,20.3,25.8z"/>
</g>
<g id="Capa_1">
</g>
</svg>
