<?xml version="1.0" encoding="utf-8"?>
<!-- Generator: Adobe Illustrator 18.0.0, SVG Export Plug-In . SVG Version: 6.00 Build 0)  -->
<!DOCTYPE svg PUBLIC "-//W3C//DTD SVG 1.1//EN" "http://www.w3.org/Graphics/SVG/1.1/DTD/svg11.dtd">
<svg version="1.1" id="Layer_1" xmlns="http://www.w3.org/2000/svg" xmlns:xlink="http://www.w3.org/1999/xlink" x="0px" y="0px"
	 viewBox="0 0 25.6 17.9" enable-background="new 0 0 25.6 17.9" xml:space="preserve">
<g>
	<g>
		<path fill="#FFFFFF" d="M23.5,2.6h-5.9V12c0.4-0.1,0.8-0.2,1.2-0.2c1.8,0,3.3,1.2,3.7,2.9h3V7.6L23.5,2.6z M20.7,7.9l-1.4-3.8h3.3
			l1.6,3.8H20.7z M14.7,0H1.4C0.6,0,0,0.6,0,1.4v13.3h1.9c0.4-1.7,1.9-3,3.7-3c1.8,0,3.3,1.3,3.7,3h5.9c0.2-0.7,0.5-1.3,0.9-1.7V1.4
			C16.1,0.6,15.5,0,14.7,0z M5.6,13.3c-1.3,0-2.3,1-2.3,2.3c0,1.3,1,2.3,2.3,2.3c1.3,0,2.3-1,2.3-2.3C7.9,14.3,6.9,13.3,5.6,13.3z
			 M18.9,13.3c-1.3,0-2.3,1-2.3,2.3c0,1.3,1,2.3,2.3,2.3c1.3,0,2.3-1,2.3-2.3C21.2,14.3,20.2,13.3,18.9,13.3z"/>
	</g>
</g>
</svg>
