<?xml version="1.0" encoding="utf-8"?>
<!-- Generator: Adobe Illustrator 17.1.0, SVG Export Plug-In . SVG Version: 6.00 Build 0)  -->
<!DOCTYPE svg PUBLIC "-//W3C//DTD SVG 1.1//EN" "http://www.w3.org/Graphics/SVG/1.1/DTD/svg11.dtd">
<svg version="1.1" id="Layer_1" xmlns="http://www.w3.org/2000/svg" xmlns:xlink="http://www.w3.org/1999/xlink" x="0px" y="0px"
	 viewBox="0 0 17.8 14.8" enable-background="new 0 0 17.8 14.8" xml:space="preserve">
<path fill="#FFFFFF" d="M16.2,3.7c0.6,8.6-9.1,13.9-16.2,9.6c2,0,4.2-0.5,5.3-1.6C3.6,11.3,2.4,10.5,2,9c0.5,0,1.2,0.1,1.5-0.1
	C1.9,8.3,0.7,7.4,0.6,5.3c0.6,0.1,0.8,0.4,1.5,0.3C1.1,5,0,2.5,1,0.7c1.8,2,4.1,3.6,7.7,3.9c-0.9-3.8,4.1-6.1,6.4-3.4
	C16,1,16.7,0.7,17.5,0.4c-0.3,0.9-0.9,1.4-1.5,2c0.7-0.1,1.4-0.2,1.9-0.5C17.7,2.5,16.7,3.1,16.2,3.7z"/>
</svg>
