<?xml version="1.0" encoding="utf-8"?>
<!-- Generator: Adobe Illustrator 16.0.0, SVG Export Plug-In . SVG Version: 6.00 Build 0)  -->
<!DOCTYPE svg PUBLIC "-//W3C//DTD SVG 1.1//EN" "http://www.w3.org/Graphics/SVG/1.1/DTD/svg11.dtd">
<svg version="1.1" id="Layer_1" xmlns="http://www.w3.org/2000/svg" xmlns:xlink="http://www.w3.org/1999/xlink" x="0px" y="0px"
	 width="150px" height="180px" viewBox="0 0 150 180" enable-background="new 0 0 150 180" xml:space="preserve">
<g>
	<g>
		<polyline fill="#D9D9D9" points="94.984,109.041 59.559,85.386 99.955,106.462 94.984,109.041 		"/>
		<path fill="#FFFFFF" d="M59.566,127.392l-0.007-42.006l40.396,21.076L59.566,127.392L59.566,127.392z M148.257,78.109
			c0,0-1.46-10.302-5.943-14.839c-5.685-5.955-12.057-5.984-14.979-6.333c-20.92-1.512-52.302-1.512-52.302-1.512h-0.065
			c0,0-31.381,0-52.302,1.512c-2.922,0.349-9.292,0.378-14.979,6.333c-4.482,4.537-5.941,14.839-5.941,14.839
			S0.25,90.207,0.25,102.306v11.342c0,12.098,1.495,24.195,1.495,24.195s1.458,10.303,5.941,14.839
			c5.687,5.955,13.157,5.767,16.484,6.391c11.96,1.147,50.83,1.502,50.83,1.502s31.414-0.047,52.334-1.56
			c2.923-0.349,9.295-0.378,14.979-6.333c4.483-4.536,5.943-14.839,5.943-14.839s1.493-12.098,1.493-24.195v-11.342
			C149.75,90.207,148.257,78.109,148.257,78.109L148.257,78.109z"/>
	</g>
</g>
</svg>
